<svg width="320" height="80" viewBox="0 0 320 80" fill="none" xmlns="http://www.w3.org/2000/svg">
<mask id="path-1-outside-1_1_2" maskUnits="userSpaceOnUse" x="0" y="0" width="320" height="80" fill="black">
<rect fill="white" width="320" height="80"/>
<path d="M68.7727 29.625H54.0455C54.0909 27.6705 53.8409 25.9432 53.2955 24.4432C52.75 22.9205 51.9318 21.625 50.8409 20.5568C49.7727 19.4886 48.4659 18.6818 46.9205 18.1364C45.375 17.5682 43.6364 17.2841 41.7045 17.2841C37.9773 17.2841 34.5568 18.2159 31.4432 20.0795C28.3295 21.9432 25.7045 24.6477 23.5682 28.1932C21.4318 31.7159 19.9545 35.9773 19.1364 40.9773C18.3409 45.7955 18.3864 49.8295 19.2727 53.0795C20.1591 56.3295 21.7273 58.7841 23.9773 60.4432C26.25 62.0795 29.0795 62.8977 32.4659 62.8977C34.5568 62.8977 36.5455 62.6364 38.4318 62.1136C40.3182 61.5682 42.0341 60.7955 43.5795 59.7955C45.1477 58.7727 46.5114 57.5341 47.6705 56.0795C48.8523 54.625 49.7727 52.9773 50.4318 51.1364H65.2614C64.3295 54.3409 62.875 57.4318 60.8977 60.4091C58.9432 63.3864 56.5227 66.0455 53.6364 68.3864C50.75 70.7045 47.4659 72.5455 43.7841 73.9091C40.1023 75.2727 36.0682 75.9545 31.6818 75.9545C25.3409 75.9545 19.8977 74.5 15.3523 71.5909C10.8295 68.6818 7.56818 64.4886 5.56818 59.0114C3.56818 53.5341 3.19318 46.9318 4.44318 39.2045C5.69318 31.7273 8.13636 25.3864 11.7727 20.1818C15.4318 14.9545 19.875 10.9886 25.1023 8.28409C30.3523 5.57954 35.9659 4.22727 41.9432 4.22727C46.1023 4.22727 49.8636 4.79545 53.2273 5.93182C56.5909 7.06818 59.4545 8.72727 61.8182 10.9091C64.2045 13.0682 66 15.7159 67.2045 18.8523C68.4091 21.9886 68.9318 25.5795 68.7727 29.625ZM83.483 5.18182H101.688L113.176 52.0909H113.994L140.96 5.18182H159.165L147.574 75H133.256L140.824 29.5568H140.21L114.71 74.6591H104.926L94.4261 29.3864H93.8466L86.2102 75H71.892L83.483 5.18182ZM186.088 5.18182L174.497 75H159.736L171.327 5.18182H186.088ZM232.699 25.4659C232.813 22.625 231.983 20.4318 230.21 18.8864C228.46 17.3409 225.813 16.5682 222.267 16.5682C219.858 16.5682 217.767 16.9091 215.994 17.5909C214.222 18.25 212.801 19.1705 211.733 20.3523C210.688 21.5114 210.04 22.8523 209.79 24.375C209.54 25.625 209.619 26.7159 210.028 27.6477C210.46 28.5795 211.131 29.3864 212.04 30.0682C212.972 30.7273 214.074 31.3068 215.347 31.8068C216.619 32.2841 217.972 32.6932 219.403 33.0341L225.403 34.5341C228.335 35.2159 230.972 36.125 233.312 37.2614C235.676 38.3977 237.653 39.7955 239.244 41.4545C240.858 43.1136 241.994 45.0682 242.653 47.3182C243.312 49.5682 243.403 52.1477 242.926 55.0568C242.199 59.3295 240.506 63.0341 237.847 66.1705C235.188 69.2841 231.699 71.7045 227.381 73.4318C223.063 75.1364 218.063 75.9886 212.381 75.9886C206.744 75.9886 201.983 75.125 198.097 73.3977C194.21 71.6705 191.381 69.1136 189.608 65.7273C187.858 62.3182 187.335 58.1023 188.04 53.0795H202.324C202.074 55.4205 202.415 57.375 203.347 58.9432C204.301 60.4886 205.722 61.6591 207.608 62.4545C209.494 63.2273 211.71 63.6136 214.256 63.6136C216.778 63.6136 219.017 63.25 220.972 62.5227C222.949 61.7955 224.551 60.7841 225.778 59.4886C227.006 58.1932 227.756 56.7045 228.028 55.0227C228.301 53.4545 228.062 52.1364 227.312 51.0682C226.562 50 225.358 49.0909 223.699 48.3409C222.063 47.5682 220.028 46.8864 217.597 46.2955L210.301 44.3864C204.665 42.9545 200.403 40.7159 197.517 37.6705C194.631 34.625 193.597 30.5227 194.415 25.3636C195.142 21.1364 196.903 17.4432 199.699 14.2841C202.517 11.1023 206.062 8.63636 210.335 6.88636C214.631 5.11363 219.324 4.22727 224.415 4.22727C229.597 4.22727 233.972 5.125 237.54 6.92045C241.108 8.69318 243.71 11.1705 245.347 14.3523C246.983 17.5341 247.483 21.2386 246.847 25.4659H232.699ZM256.435 17.3523L258.48 5.18182H315.821L313.776 17.3523H292.401L282.855 75H268.264L277.81 17.3523H256.435Z"/>
</mask>
<path d="M68.7727 29.625H54.0455C54.0909 27.6705 53.8409 25.9432 53.2955 24.4432C52.75 22.9205 51.9318 21.625 50.8409 20.5568C49.7727 19.4886 48.4659 18.6818 46.9205 18.1364C45.375 17.5682 43.6364 17.2841 41.7045 17.2841C37.9773 17.2841 34.5568 18.2159 31.4432 20.0795C28.3295 21.9432 25.7045 24.6477 23.5682 28.1932C21.4318 31.7159 19.9545 35.9773 19.1364 40.9773C18.3409 45.7955 18.3864 49.8295 19.2727 53.0795C20.1591 56.3295 21.7273 58.7841 23.9773 60.4432C26.25 62.0795 29.0795 62.8977 32.4659 62.8977C34.5568 62.8977 36.5455 62.6364 38.4318 62.1136C40.3182 61.5682 42.0341 60.7955 43.5795 59.7955C45.1477 58.7727 46.5114 57.5341 47.6705 56.0795C48.8523 54.625 49.7727 52.9773 50.4318 51.1364H65.2614C64.3295 54.3409 62.875 57.4318 60.8977 60.4091C58.9432 63.3864 56.5227 66.0455 53.6364 68.3864C50.75 70.7045 47.4659 72.5455 43.7841 73.9091C40.1023 75.2727 36.0682 75.9545 31.6818 75.9545C25.3409 75.9545 19.8977 74.5 15.3523 71.5909C10.8295 68.6818 7.56818 64.4886 5.56818 59.0114C3.56818 53.5341 3.19318 46.9318 4.44318 39.2045C5.69318 31.7273 8.13636 25.3864 11.7727 20.1818C15.4318 14.9545 19.875 10.9886 25.1023 8.28409C30.3523 5.57954 35.9659 4.22727 41.9432 4.22727C46.1023 4.22727 49.8636 4.79545 53.2273 5.93182C56.5909 7.06818 59.4545 8.72727 61.8182 10.9091C64.2045 13.0682 66 15.7159 67.2045 18.8523C68.4091 21.9886 68.9318 25.5795 68.7727 29.625ZM83.483 5.18182H101.688L113.176 52.0909H113.994L140.96 5.18182H159.165L147.574 75H133.256L140.824 29.5568H140.21L114.71 74.6591H104.926L94.4261 29.3864H93.8466L86.2102 75H71.892L83.483 5.18182ZM186.088 5.18182L174.497 75H159.736L171.327 5.18182H186.088ZM232.699 25.4659C232.813 22.625 231.983 20.4318 230.21 18.8864C228.46 17.3409 225.813 16.5682 222.267 16.5682C219.858 16.5682 217.767 16.9091 215.994 17.5909C214.222 18.25 212.801 19.1705 211.733 20.3523C210.688 21.5114 210.04 22.8523 209.79 24.375C209.54 25.625 209.619 26.7159 210.028 27.6477C210.46 28.5795 211.131 29.3864 212.04 30.0682C212.972 30.7273 214.074 31.3068 215.347 31.8068C216.619 32.2841 217.972 32.6932 219.403 33.0341L225.403 34.5341C228.335 35.2159 230.972 36.125 233.312 37.2614C235.676 38.3977 237.653 39.7955 239.244 41.4545C240.858 43.1136 241.994 45.0682 242.653 47.3182C243.312 49.5682 243.403 52.1477 242.926 55.0568C242.199 59.3295 240.506 63.0341 237.847 66.1705C235.188 69.2841 231.699 71.7045 227.381 73.4318C223.063 75.1364 218.063 75.9886 212.381 75.9886C206.744 75.9886 201.983 75.125 198.097 73.3977C194.21 71.6705 191.381 69.1136 189.608 65.7273C187.858 62.3182 187.335 58.1023 188.04 53.0795H202.324C202.074 55.4205 202.415 57.375 203.347 58.9432C204.301 60.4886 205.722 61.6591 207.608 62.4545C209.494 63.2273 211.71 63.6136 214.256 63.6136C216.778 63.6136 219.017 63.25 220.972 62.5227C222.949 61.7955 224.551 60.7841 225.778 59.4886C227.006 58.1932 227.756 56.7045 228.028 55.0227C228.301 53.4545 228.062 52.1364 227.312 51.0682C226.562 50 225.358 49.0909 223.699 48.3409C222.063 47.5682 220.028 46.8864 217.597 46.2955L210.301 44.3864C204.665 42.9545 200.403 40.7159 197.517 37.6705C194.631 34.625 193.597 30.5227 194.415 25.3636C195.142 21.1364 196.903 17.4432 199.699 14.2841C202.517 11.1023 206.062 8.63636 210.335 6.88636C214.631 5.11363 219.324 4.22727 224.415 4.22727C229.597 4.22727 233.972 5.125 237.54 6.92045C241.108 8.69318 243.71 11.1705 245.347 14.3523C246.983 17.5341 247.483 21.2386 246.847 25.4659H232.699ZM256.435 17.3523L258.48 5.18182H315.821L313.776 17.3523H292.401L282.855 75H268.264L277.81 17.3523H256.435Z" fill="url(#paint0_linear_1_2)"/>
<path d="M68.7727 29.625V33.125H72.1378L72.27 29.7625L68.7727 29.625ZM54.0455 29.625L50.5464 29.5436L50.4631 33.125H54.0455V29.625ZM53.2955 24.4432L50.0005 25.6235L50.0033 25.6314L50.0062 25.6393L53.2955 24.4432ZM50.8409 20.5568L48.366 23.0317L48.3791 23.0447L48.3922 23.0576L50.8409 20.5568ZM46.9205 18.1364L45.7127 21.4214L45.7341 21.4292L45.7556 21.4368L46.9205 18.1364ZM31.4432 20.0795L33.2407 23.0827L33.2407 23.0827L31.4432 20.0795ZM23.5682 28.1932L26.5609 30.0081L26.566 29.9996L23.5682 28.1932ZM19.1364 40.9773L22.5896 41.5474L22.5904 41.5425L19.1364 40.9773ZM19.2727 53.0795L22.6494 52.1586L22.6494 52.1586L19.2727 53.0795ZM23.9773 60.4432L21.9001 63.2602L21.9161 63.2719L21.9322 63.2836L23.9773 60.4432ZM38.4318 62.1136L39.3665 65.4865L39.3853 65.4813L39.404 65.4759L38.4318 62.1136ZM43.5795 59.7955L45.4809 62.734L45.4915 62.7271L43.5795 59.7955ZM47.6705 56.0795L44.9541 53.8725L44.9436 53.8854L44.9332 53.8983L47.6705 56.0795ZM50.4318 51.1364V47.6364H47.9674L47.1366 49.9566L50.4318 51.1364ZM65.2614 51.1364L68.6222 52.1136L69.9241 47.6364H65.2614V51.1364ZM60.8977 60.4091L57.9821 58.4728L57.977 58.4805L57.9719 58.4883L60.8977 60.4091ZM53.6364 68.3864L55.828 71.1152L55.8345 71.11L55.841 71.1047L53.6364 68.3864ZM43.7841 73.9091L42.5685 70.627L42.5685 70.627L43.7841 73.9091ZM15.3523 71.5909L13.4589 74.5346L13.4656 74.5389L15.3523 71.5909ZM5.56818 59.0114L2.2805 60.2118L2.2805 60.2118L5.56818 59.0114ZM4.44318 39.2045L0.991087 38.6274L0.989567 38.6365L0.988096 38.6456L4.44318 39.2045ZM11.7727 20.1818L8.90541 18.1747L8.90365 18.1772L11.7727 20.1818ZM25.1023 8.28409L23.4994 5.17267L23.4939 5.17552L25.1023 8.28409ZM61.8182 10.9091L59.4442 13.4809L59.457 13.4927L59.47 13.5045L61.8182 10.9091ZM67.2045 18.8523L63.9372 20.1071L63.9372 20.1071L67.2045 18.8523ZM68.7727 29.625V26.125H54.0455V29.625V33.125H68.7727V29.625ZM54.0455 29.625L57.5445 29.7064C57.5979 27.4115 57.3082 25.2367 56.5847 23.2471L53.2955 24.4432L50.0062 25.6393C50.3736 26.6496 50.5839 27.9294 50.5464 29.5436L54.0455 29.625ZM53.2955 24.4432L56.5904 23.2629C55.8773 21.272 54.7812 19.5166 53.2896 18.056L50.8409 20.5568L48.3922 23.0576C49.0824 23.7334 49.6227 24.5689 50.0005 25.6235L53.2955 24.4432ZM50.8409 20.5568L53.3158 18.0819C51.8474 16.6136 50.0811 15.5403 48.0853 14.8359L46.9205 18.1364L45.7556 21.4368C46.8507 21.8234 47.698 22.3637 48.366 23.0317L50.8409 20.5568ZM46.9205 18.1364L48.1282 14.8513C46.1353 14.1187 43.9785 13.7841 41.7045 13.7841V17.2841V20.7841C43.2942 20.7841 44.6147 21.0177 45.7127 21.4214L46.9205 18.1364ZM41.7045 17.2841V13.7841C37.3622 13.7841 33.3178 14.8785 29.6457 17.0764L31.4432 20.0795L33.2407 23.0827C35.7958 21.5533 38.5923 20.7841 41.7045 20.7841V17.2841ZM31.4432 20.0795L29.6457 17.0764C25.9744 19.2738 22.9607 22.4199 20.5704 26.3868L23.5682 28.1932L26.566 29.9996C28.4484 26.8756 30.6846 24.6126 33.2407 23.0827L31.4432 20.0795ZM23.5682 28.1932L20.5755 26.3783C18.1601 30.3612 16.5567 35.0683 15.6823 40.4121L19.1364 40.9773L22.5904 41.5425C23.3524 36.8862 24.7036 33.0706 26.5609 30.0081L23.5682 28.1932ZM19.1364 40.9773L15.6831 40.4072C14.8397 45.5161 14.8315 50.0972 15.8961 54.0005L19.2727 53.0795L22.6494 52.1586C21.9412 49.5619 21.8422 46.0748 22.5896 41.5474L19.1364 40.9773ZM19.2727 53.0795L15.8961 54.0005C16.9458 57.8496 18.8933 61.043 21.9001 63.2602L23.9773 60.4432L26.0544 57.6262C24.5612 56.5251 23.3724 54.8095 22.6494 52.1586L19.2727 53.0795ZM23.9773 60.4432L21.9322 63.2836C24.9163 65.4321 28.5023 66.3977 32.4659 66.3977V62.8977V59.3977C29.6568 59.3977 27.5837 58.727 26.0223 57.6028L23.9773 60.4432ZM32.4659 62.8977V66.3977C34.8512 66.3977 37.1557 66.0992 39.3665 65.4865L38.4318 62.1136L37.4972 58.7407C35.9352 59.1736 34.2624 59.3977 32.4659 59.3977V62.8977ZM38.4318 62.1136L39.404 65.4759C41.5972 64.8417 43.6296 63.9319 45.4809 62.7339L43.5795 59.7955L41.6782 56.857C40.4386 57.659 39.0391 58.2946 37.4596 58.7514L38.4318 62.1136ZM43.5795 59.7955L45.4915 62.7271C47.371 61.5013 49.0138 60.0099 50.4077 58.2608L47.6705 56.0795L44.9332 53.8983C44.0089 55.0583 42.9245 56.0441 41.6676 56.8638L43.5795 59.7955ZM47.6705 56.0795L50.3869 58.2866C51.829 56.5117 52.9403 54.5134 53.727 52.3161L50.4318 51.1364L47.1366 49.9566C46.6052 51.4411 45.8755 52.7383 44.9541 53.8725L47.6705 56.0795ZM50.4318 51.1364V54.6364H65.2614V51.1364V47.6364H50.4318V51.1364ZM65.2614 51.1364L61.9006 50.1591C61.0745 52.9999 59.7772 55.7699 57.9821 58.4728L60.8977 60.4091L63.8133 62.3454C65.9728 59.0938 67.5846 55.6819 68.6222 52.1136L65.2614 51.1364ZM60.8977 60.4091L57.9719 58.4883C56.2237 61.1512 54.0503 63.5443 51.4317 65.668L53.6364 68.3864L55.841 71.1047C58.9952 68.5466 61.6627 65.6215 63.8236 62.3299L60.8977 60.4091ZM53.6364 68.3864L51.4447 65.6575C48.8692 67.7261 45.9188 69.3861 42.5685 70.627L43.7841 73.9091L44.9997 77.1912C49.013 75.7048 52.6309 73.683 55.828 71.1152L53.6364 68.3864ZM43.7841 73.9091L42.5685 70.627C39.3186 71.8306 35.7016 72.4545 31.6818 72.4545V75.9545V79.4545C36.4348 79.4545 40.8859 78.7148 44.9997 77.1912L43.7841 73.9091ZM31.6818 75.9545V72.4545C25.8906 72.4545 21.1287 71.1324 17.239 68.643L15.3523 71.5909L13.4656 74.5389C18.6668 77.8676 24.7912 79.4545 31.6818 79.4545V75.9545ZM15.3523 71.5909L17.2457 68.6473C13.4207 66.187 10.6173 62.6347 8.85586 57.8109L5.56818 59.0114L2.2805 60.2118C4.5191 66.3426 8.23837 71.1766 13.4589 74.5346L15.3523 71.5909ZM5.56818 59.0114L8.85586 57.8109C7.1197 53.0562 6.71239 47.0943 7.89827 39.7635L4.44318 39.2045L0.988096 38.6456C-0.326026 46.7693 0.0166646 54.012 2.2805 60.2118L5.56818 59.0114ZM4.44318 39.2045L7.89528 39.7816C9.07592 32.7192 11.3558 26.8895 14.6418 22.1864L11.7727 20.1818L8.90365 18.1772C4.91695 23.8832 2.31044 30.7353 0.991087 38.6274L4.44318 39.2045ZM11.7727 20.1818L14.64 22.1889C18.0026 17.3853 22.0274 13.8157 26.7106 11.3927L25.1023 8.28409L23.4939 5.17552C17.7226 8.16156 12.861 12.5238 8.90542 18.1747L11.7727 20.1818ZM25.1023 8.28409L26.7051 11.3955C31.4532 8.94952 36.5165 7.72727 41.9432 7.72727V4.22727V0.72727C35.4153 0.72727 29.2513 2.20957 23.4994 5.17267L25.1023 8.28409ZM41.9432 4.22727V7.72727C45.7851 7.72727 49.1602 8.25213 52.107 9.2477L53.2273 5.93182L54.3475 2.61593C50.5671 1.33878 46.4194 0.72727 41.9432 0.72727V4.22727ZM53.2273 5.93182L52.107 9.2477C55.0538 10.2432 57.4775 11.6655 59.4442 13.4809L61.8182 10.9091L64.1922 8.33727C61.4316 5.78903 58.128 3.89313 54.3475 2.61593L53.2273 5.93182ZM61.8182 10.9091L59.47 13.5045C61.4309 15.2787 62.9207 17.4603 63.9372 20.1071L67.2045 18.8523L70.4719 17.5974C69.0793 13.9715 66.9782 10.8577 64.1664 8.31371L61.8182 10.9091ZM67.2045 18.8523L63.9372 20.1071C64.9402 22.7186 65.4196 25.8216 65.2754 29.4875L68.7727 29.625L72.27 29.7625C72.444 25.3375 71.878 21.2586 70.4719 17.5974L67.2045 18.8523ZM83.483 5.18182V1.68182H80.5161L80.0302 4.60861L83.483 5.18182ZM101.688 5.18182L105.087 4.34923L104.434 1.68182H101.688V5.18182ZM113.176 52.0909L109.777 52.9235L110.43 55.5909H113.176V52.0909ZM113.994 52.0909V55.5909H116.019L117.029 53.8352L113.994 52.0909ZM140.96 5.18182V1.68182H138.935L137.926 3.4375L140.96 5.18182ZM159.165 5.18182L162.618 5.75503L163.294 1.68182H159.165V5.18182ZM147.574 75V78.5H150.541L151.027 75.5732L147.574 75ZM133.256 75L129.803 74.425L129.125 78.5H133.256V75ZM140.824 29.5568L144.276 30.1318L144.955 26.0568H140.824V29.5568ZM140.21 29.5568V26.0568H138.168L137.163 27.8342L140.21 29.5568ZM114.71 74.6591V78.1591H116.752L117.757 76.3817L114.71 74.6591ZM104.926 74.6591L101.517 75.4498L102.145 78.1591H104.926V74.6591ZM94.4261 29.3864L97.8356 28.5956L97.2073 25.8864H94.4261V29.3864ZM93.8466 29.3864V25.8864H90.8838L90.3946 28.8085L93.8466 29.3864ZM86.2102 75V78.5H89.173L89.6622 75.5779L86.2102 75ZM71.892 75L68.4393 74.4268L67.7631 78.5H71.892V75ZM83.483 5.18182V8.68182H101.688V5.18182V1.68182H83.483V5.18182ZM101.688 5.18182L98.288 6.0144L109.777 52.9235L113.176 52.0909L116.576 51.2583L105.087 4.34923L101.688 5.18182ZM113.176 52.0909V55.5909H113.994V52.0909V48.5909H113.176V52.0909ZM113.994 52.0909L117.029 53.8352L143.995 6.92613L140.96 5.18182L137.926 3.4375L110.96 50.3466L113.994 52.0909ZM140.96 5.18182V8.68182H159.165V5.18182V1.68182H140.96V5.18182ZM159.165 5.18182L155.712 4.60861L144.121 74.4268L147.574 75L151.027 75.5732L162.618 5.75503L159.165 5.18182ZM147.574 75V71.5H133.256V75V78.5H147.574V75ZM133.256 75L136.708 75.575L144.276 30.1318L140.824 29.5568L137.371 28.9818L129.803 74.425L133.256 75ZM140.824 29.5568V26.0568H140.21V29.5568V33.0568H140.824V29.5568ZM140.21 29.5568L137.163 27.8342L111.663 72.9365L114.71 74.6591L117.757 76.3817L143.257 31.2794L140.21 29.5568ZM114.71 74.6591V71.1591H104.926V74.6591V78.1591H114.71V74.6591ZM104.926 74.6591L108.336 73.8683L97.8356 28.5956L94.4261 29.3864L91.0166 30.1771L101.517 75.4498L104.926 74.6591ZM94.4261 29.3864V25.8864H93.8466V29.3864V32.8864H94.4261V29.3864ZM93.8466 29.3864L90.3946 28.8085L82.7583 74.4221L86.2102 75L89.6622 75.5779L97.2986 29.9643L93.8466 29.3864ZM86.2102 75V71.5H71.892V75V78.5H86.2102V75ZM71.892 75L75.3448 75.5732L86.9357 5.75503L83.483 5.18182L80.0302 4.60861L68.4393 74.4268L71.892 75ZM186.088 5.18182L189.541 5.75503L190.217 1.68182H186.088V5.18182ZM174.497 75V78.5H177.464L177.95 75.5732L174.497 75ZM159.736 75L156.283 74.4268L155.607 78.5H159.736V75ZM171.327 5.18182V1.68182H168.36L167.874 4.60861L171.327 5.18182ZM186.088 5.18182L182.635 4.60861L171.044 74.4268L174.497 75L177.95 75.5732L189.541 5.75503L186.088 5.18182ZM174.497 75V71.5H159.736V75V78.5H174.497V75ZM159.736 75L163.189 75.5732L174.779 5.75503L171.327 5.18182L167.874 4.60861L156.283 74.4268L159.736 75ZM171.327 5.18182V8.68182H186.088V5.18182V1.68182H171.327V5.18182ZM232.699 25.4659L229.202 25.326L229.056 28.9659H232.699V25.4659ZM230.21 18.8864L227.893 21.5098L227.902 21.5172L227.91 21.5246L230.21 18.8864ZM215.994 17.5909L217.214 20.8715L217.232 20.8647L217.251 20.8576L215.994 17.5909ZM211.733 20.3523L209.136 18.0054L209.134 18.0081L211.733 20.3523ZM209.79 24.375L213.222 25.0614L213.234 25.0019L213.244 24.942L209.79 24.375ZM210.028 27.6477L206.824 29.0547L206.838 29.0872L206.853 29.1193L210.028 27.6477ZM212.04 30.0682L209.94 32.8682L209.979 32.8975L210.019 32.9256L212.04 30.0682ZM215.347 31.8068L214.067 35.0644L214.092 35.0744L214.118 35.084L215.347 31.8068ZM219.403 33.0341L220.252 29.6386L220.233 29.6338L220.214 29.6293L219.403 33.0341ZM225.403 34.5341L224.555 37.9296L224.583 37.9366L224.611 37.9431L225.403 34.5341ZM233.312 37.2614L231.784 40.41L231.796 40.4157L233.312 37.2614ZM239.244 41.4545L236.718 43.877L236.727 43.8859L236.735 43.8948L239.244 41.4545ZM242.653 47.3182L239.295 48.3021L239.295 48.3021L242.653 47.3182ZM242.926 55.0568L246.377 55.6441L246.378 55.6338L246.38 55.6235L242.926 55.0568ZM237.847 66.1705L240.508 68.4434L240.516 68.4339L237.847 66.1705ZM227.381 73.4318L228.666 76.6874L228.673 76.6844L228.681 76.6815L227.381 73.4318ZM198.097 73.3977L199.518 70.1994L199.518 70.1994L198.097 73.3977ZM189.608 65.7273L186.494 67.3256L186.501 67.3381L186.507 67.3505L189.608 65.7273ZM188.04 53.0795V49.5795H184.996L184.574 52.5934L188.04 53.0795ZM202.324 53.0795L205.804 53.4512L206.218 49.5795H202.324V53.0795ZM203.347 58.9432L200.338 60.7311L200.353 60.7569L200.369 60.7824L203.347 58.9432ZM207.608 62.4545L206.248 65.6795L206.265 65.6865L206.281 65.6933L207.608 62.4545ZM220.972 62.5227L219.763 59.2379L219.751 59.2425L220.972 62.5227ZM225.778 59.4886L228.319 61.8957L228.319 61.8957L225.778 59.4886ZM228.028 55.0227L224.58 54.423L224.577 54.4427L224.574 54.4625L228.028 55.0227ZM223.699 48.3409L222.204 51.5058L222.231 51.5182L222.257 51.5302L223.699 48.3409ZM217.597 46.2955L216.711 49.6814L216.74 49.6892L216.77 49.6965L217.597 46.2955ZM210.301 44.3864L211.187 41.0004L211.175 40.9972L211.163 40.9941L210.301 44.3864ZM197.517 37.6705L194.977 40.0781L194.977 40.0781L197.517 37.6705ZM194.415 25.3636L190.965 24.7702L190.962 24.7928L190.958 24.8154L194.415 25.3636ZM199.699 14.2841L197.079 11.9635L197.078 11.9647L199.699 14.2841ZM210.335 6.88636L211.662 10.1252L211.67 10.1217L210.335 6.88636ZM237.54 6.92045L235.967 10.047L235.975 10.051L235.983 10.0549L237.54 6.92045ZM245.347 14.3523L248.459 12.7516L248.459 12.7516L245.347 14.3523ZM246.847 25.4659V28.9659H249.859L250.308 25.9869L246.847 25.4659ZM232.699 25.4659L236.196 25.6058C236.342 21.9505 235.251 18.6372 232.51 16.2482L230.21 18.8864L227.91 21.5246C228.715 22.2265 229.283 23.2995 229.202 25.326L232.699 25.4659ZM230.21 18.8864L232.527 16.2629C229.877 13.9225 226.238 13.0682 222.267 13.0682V16.5682V20.0682C225.387 20.0682 227.044 20.7593 227.893 21.5098L230.21 18.8864ZM222.267 16.5682V13.0682C219.539 13.0682 217.003 13.453 214.738 14.3242L215.994 17.5909L217.251 20.8576C218.531 20.3652 220.177 20.0682 222.267 20.0682V16.5682ZM215.994 17.5909L214.775 14.3103C212.573 15.1289 210.646 16.3348 209.136 18.0054L211.733 20.3523L214.33 22.6992C214.956 22.0062 215.87 21.3711 217.214 20.8715L215.994 17.5909ZM211.733 20.3523L209.134 18.0081C207.645 19.6593 206.696 21.6151 206.336 23.808L209.79 24.375L213.244 24.942C213.384 24.0894 213.73 23.3634 214.332 22.6965L211.733 20.3523ZM209.79 24.375L206.358 23.6886C206.003 25.464 206.06 27.3154 206.824 29.0547L210.028 27.6477L213.233 26.2408C213.179 26.1164 213.077 25.786 213.222 25.0614L209.79 24.375ZM210.028 27.6477L206.853 29.1193C207.553 30.6302 208.618 31.8769 209.94 32.8682L212.04 30.0682L214.14 27.2682C213.643 26.8958 213.367 26.5289 213.204 26.1761L210.028 27.6477ZM212.04 30.0682L210.019 32.9256C211.221 33.7758 212.582 34.481 214.067 35.0644L215.347 31.8068L216.626 28.5492C215.566 28.1326 214.723 27.6787 214.061 27.2107L212.04 30.0682ZM215.347 31.8068L214.118 35.084C215.538 35.6165 217.031 36.067 218.593 36.4389L219.403 33.0341L220.214 29.6293C218.913 29.3194 217.701 28.9517 216.576 28.5297L215.347 31.8068ZM219.403 33.0341L218.555 36.4296L224.555 37.9296L225.403 34.5341L226.252 31.1386L220.252 29.6386L219.403 33.0341ZM225.403 34.5341L224.611 37.9431C227.327 38.5748 229.711 39.4037 231.784 40.41L233.312 37.2614L234.841 34.1127C232.232 32.8463 229.344 31.857 226.196 31.1251L225.403 34.5341ZM233.312 37.2614L231.796 40.4157C233.835 41.3958 235.455 42.5598 236.718 43.877L239.244 41.4545L241.771 39.0321C239.852 37.0311 237.518 35.3996 234.829 34.107L233.312 37.2614ZM239.244 41.4545L236.735 43.8948C237.946 45.1394 238.794 46.5921 239.295 48.3021L242.653 47.3182L246.012 46.3343C245.195 43.5443 243.77 41.0878 241.753 39.0143L239.244 41.4545ZM242.653 47.3182L239.295 48.3021C239.773 49.9365 239.886 51.969 239.472 54.4902L242.926 55.0568L246.38 55.6235C246.921 52.3264 246.852 49.1998 246.012 46.3343L242.653 47.3182ZM242.926 55.0568L239.476 54.4695C238.848 58.1585 237.408 61.2756 235.177 63.9071L237.847 66.1705L240.516 68.4339C243.603 64.7926 245.55 60.5006 246.377 55.6441L242.926 55.0568ZM237.847 66.1705L235.185 63.8975C232.941 66.5246 229.945 68.6365 226.081 70.1821L227.381 73.4318L228.681 76.6815C233.453 74.7726 237.434 72.0436 240.508 68.4434L237.847 66.1705ZM227.381 73.4318L226.096 70.1763C222.267 71.6876 217.718 72.4886 212.381 72.4886V75.9886V79.4886C218.407 79.4886 223.858 78.5851 228.666 76.6874L227.381 73.4318ZM212.381 75.9886V72.4886C207.083 72.4886 202.837 71.6743 199.518 70.1994L198.097 73.3977L196.675 76.5961C201.129 78.5757 206.406 79.4886 212.381 79.4886V75.9886ZM198.097 73.3977L199.518 70.1994C196.267 68.7545 194.074 66.7119 192.709 64.104L189.608 65.7273L186.507 67.3505C188.687 71.5154 192.153 74.5864 196.675 76.5961L198.097 73.3977ZM189.608 65.7273L192.722 64.1289C191.393 61.5403 190.869 58.1024 191.506 53.5657L188.04 53.0795L184.574 52.5934C183.801 58.1021 184.323 63.096 186.494 67.3256L189.608 65.7273ZM188.04 53.0795V56.5795H202.324V53.0795V49.5795H188.04V53.0795ZM202.324 53.0795L198.844 52.7079C198.537 55.5813 198.92 58.3458 200.338 60.7311L203.347 58.9432L206.355 57.1553C205.909 56.4042 205.611 55.2596 205.804 53.4512L202.324 53.0795ZM203.347 58.9432L200.369 60.7824C201.753 63.0238 203.78 64.6389 206.248 65.6795L207.608 62.4545L208.968 59.2296C207.663 58.6793 206.849 57.9535 206.324 57.104L203.347 58.9432ZM207.608 62.4545L206.281 65.6933C208.679 66.6756 211.364 67.1136 214.256 67.1136V63.6136V60.1136C212.056 60.1136 210.309 59.7789 208.935 59.2158L207.608 62.4545ZM214.256 63.6136V67.1136C217.11 67.1136 219.775 66.7025 222.192 65.803L220.972 62.5227L219.751 59.2425C218.259 59.7975 216.447 60.1136 214.256 60.1136V63.6136ZM220.972 62.5227L222.18 65.8076C224.572 64.9276 226.66 63.6471 228.319 61.8957L225.778 59.4886L223.238 57.0815C222.442 57.921 221.326 58.6633 219.763 59.2379L220.972 62.5227ZM225.778 59.4886L228.319 61.8957C230.005 60.1159 231.093 57.9921 231.483 55.583L228.028 55.0227L224.574 54.4625C224.419 55.417 224.006 56.2705 223.238 57.0815L225.778 59.4886ZM228.028 55.0227L231.477 55.6224C231.871 53.3544 231.572 51.0444 230.177 49.057L227.312 51.0682L224.448 53.0794C224.553 53.2283 224.731 53.5547 224.58 54.423L228.028 55.0227ZM227.312 51.0682L230.177 49.057C228.952 47.312 227.156 46.0626 225.141 45.1516L223.699 48.3409L222.257 51.5302C223.56 52.1192 224.173 52.688 224.448 53.0794L227.312 51.0682ZM223.699 48.3409L225.193 45.176C223.279 44.2721 221.004 43.5217 218.423 42.8944L217.597 46.2955L216.77 49.6965C219.052 50.251 220.846 50.8643 222.204 51.5058L223.699 48.3409ZM217.597 46.2955L218.483 42.9095L211.187 41.0004L210.301 44.3864L209.415 47.7723L216.711 49.6814L217.597 46.2955ZM210.301 44.3864L211.163 40.9941C205.93 39.6648 202.345 37.6764 200.057 35.2628L197.517 37.6705L194.977 40.0781C198.462 43.7554 203.4 46.2443 209.439 47.7786L210.301 44.3864ZM197.517 37.6705L200.057 35.2628C198.101 33.1984 197.178 30.2877 197.872 25.9118L194.415 25.3636L190.958 24.8154C190.016 30.7577 191.161 36.0515 194.977 40.0781L197.517 37.6705ZM194.415 25.3636L197.864 25.9571C198.483 22.3595 199.963 19.2668 202.32 16.6035L199.699 14.2841L197.078 11.9647C193.844 15.6195 191.801 19.9132 190.965 24.7702L194.415 25.3636ZM199.699 14.2841L202.319 16.6047C204.752 13.8577 207.841 11.69 211.662 10.1252L210.335 6.88636L209.009 3.6475C204.284 5.58271 200.282 8.3468 197.079 11.9635L199.699 14.2841ZM210.335 6.88636L211.67 10.1217C215.504 8.53973 219.738 7.72727 224.415 7.72727V4.22727V0.72727C218.91 0.72727 213.758 1.68753 209 3.65105L210.335 6.88636ZM224.415 4.22727V7.72727C229.207 7.72727 233.009 8.559 235.967 10.047L237.54 6.92045L239.113 3.79395C234.934 1.69099 229.986 0.72727 224.415 0.72727V4.22727ZM237.54 6.92045L235.983 10.0549C238.962 11.535 240.978 13.5103 242.234 15.953L245.347 14.3523L248.459 12.7516C246.443 8.83065 243.254 5.85136 239.097 3.78598L237.54 6.92045ZM245.347 14.3523L242.234 15.953C243.473 18.3623 243.934 21.2989 243.386 24.9449L246.847 25.4659L250.308 25.9869C251.031 21.1784 250.493 16.7059 248.459 12.7516L245.347 14.3523ZM246.847 25.4659V21.9659H232.699V25.4659V28.9659H246.847V25.4659ZM256.435 17.3523L252.983 16.7722L252.297 20.8523H256.435V17.3523ZM258.48 5.18182V1.68182H255.519L255.029 4.60172L258.48 5.18182ZM315.821 5.18182L319.273 5.76192L319.958 1.68182H315.821V5.18182ZM313.776 17.3523V20.8523H316.736L317.227 17.9324L313.776 17.3523ZM292.401 17.3523V13.8523H289.432L288.948 16.7805L292.401 17.3523ZM282.855 75V78.5H285.823L286.308 75.5718L282.855 75ZM268.264 75L264.811 74.4282L264.137 78.5H268.264V75ZM277.81 17.3523L281.263 17.924L281.937 13.8523H277.81V17.3523ZM256.435 17.3523L259.886 17.9324L261.932 5.76192L258.48 5.18182L255.029 4.60172L252.983 16.7722L256.435 17.3523ZM258.48 5.18182V8.68182H315.821V5.18182V1.68182H258.48V5.18182ZM315.821 5.18182L312.369 4.60172L310.324 16.7722L313.776 17.3523L317.227 17.9324L319.273 5.76192L315.821 5.18182ZM313.776 17.3523V13.8523H292.401V17.3523V20.8523H313.776V17.3523ZM292.401 17.3523L288.948 16.7805L279.402 74.4282L282.855 75L286.308 75.5718L295.854 17.924L292.401 17.3523ZM282.855 75V71.5H268.264V75V78.5H282.855V75ZM268.264 75L271.717 75.5718L281.263 17.924L277.81 17.3523L274.357 16.7805L264.811 74.4282L268.264 75ZM277.81 17.3523V13.8523H256.435V17.3523V20.8523H277.81V17.3523Z" fill="black" mask="url(#path-1-outside-1_1_2)"/>
<defs>
<linearGradient id="paint0_linear_1_2" x1="155" y1="-18" x2="155" y2="98" gradientUnits="userSpaceOnUse">
<stop stop-color="#FF2600"/>
<stop offset="1" stop-color="#FFF200"/>
</linearGradient>
</defs>
</svg>
